<svg xmlns="http://www.w3.org/2000/svg" width="404.03" height="450.67" version="1.0" viewBox="0 0 303.02 338"><path d="M70.4.7C64.6 2.5 60.3 6 58 10.8c-1.7 3.5-2 6.2-2 16.8v12.7H37.5c-17.7 0-18.8.1-23.4 2.4-2.6 1.4-6.2 4.1-7.9 6.1C-.4 56.3 0 46.7 0 188.3V317l3.1 6.1c3.8 7.6 9.5 12.7 15.7 14.1 3.1.6 50 .9 134.7.8 118.5-.2 130.3-.3 133.6-1.9 5-2.2 11.7-8.4 14-13 1.9-3.7 1.9-6.9 1.9-133.9v-130l-2.4-4.7c-2.5-4.9-6-8.6-11.1-11.8-2.5-1.7-5.6-2-23.5-2.4l-20.5-.5-.5-13.5c-.5-14.5-1-16-6.4-20.8-9.7-8.5-23.5-6.2-30.1 4.9-1.7 2.9-2 5.2-2 16.4v13l-55.2.3-55.3.2V28.1c0-9.9-.4-13.1-1.9-16.5C90.2 3.1 79.2-2 70.4.7m10.4 15.9c.8.6 1.2 4.3 1.2 11.8v10.9H70.2l-.4-9.3c-.3-5.4 0-10.2.6-11.7 1.6-3.6 6.8-4.5 10.4-1.7m150-.1c1.3 1.1 1.8 22.3.5 23.1-.5.3-3.2.2-6 0L220 39V28.9c0-10.3.7-12.7 4-13.9 1.8-.6 5 .1 6.8 1.5M58 64.3c0 12.1 3.9 18.4 13.1 21.2 7.1 2.1 16-2.1 20.9-9.9 2.6-4 3-5.7 3-11.4 0-5.2.4-6.8 1.6-7.3.9-.3 26.5-.6 57-.6H209l-.6 5.9c-.7 6.7.6 12 4.4 17 3.2 4.3 10.3 7.5 14.6 6.7 5.3-1 12.2-6 15.1-11 2.5-4.3 2.6-5.2 2-11.6l-.7-7h17.1c18.6 0 22.6.9 23.6 5.3.3 1.2.6 57.5.8 125.2.2 67.6.7 123.9 1.1 125 .5 1.4 0 3.1-1.6 5.5l-2.4 3.5-129.6.3-129.7.2-2.6-2.2-2.6-2.3V189.7c0-69.9.3-127.8.6-128.7 1.5-3.7 6.4-4.7 23.3-4.7H58z"/><path d="M142.8 130.9c-1.5.8-3.2 2.3-3.8 3.4-.6 1.1-1 13.1-1 31.3V195l2.3 2.1c3.2 3 8.6 2.9 12.1-.3 1.4-1.3 2.6-3 2.7-3.7 0-.7 0-13.4-.1-28.2-.1-29.5-.4-31.2-6-34.1-3.4-1.8-2.8-1.8-6.2.1M149.1 284l-112.5.3-2.8 2.7c-2 1.9-2.8 3.7-2.8 6 0 3.6 2.9 7.3 5.7 7.3h230.8l2.8-3c3-3.3 3.3-5 1.6-8.3-1.7-3.3-5.1-5.7-7.9-5.4-1.4.1-53.1.3-114.9.4"/></svg>