<svg xmlns="http://www.w3.org/2000/svg" width="363.55" height="368.51" version="1.0" viewBox="0 0 272.67 276.39"><path d="M17 2.03c-6.1 2.7-11.7 8.3-14.6 14.4l-2.4 5v235.7l3.1 5.9c3.2 5.9 7.5 10 12.5 11.9 1.9.8 40.8 1.2 119.8 1.3l117.1.2 5.1-2.7c4.9-2.6 11-8.3 13.5-13 1.1-1.9 1.4-25.1 1.5-120.8.2-110.9.1-118.8-1.6-122.5-2.6-5.9-10.2-13-16.3-15.3-5-1.9-8.8-2-119.2-2.1-113-.1-114-.1-118.5 2m42.2 18.5c.2 3.5 0 4.4-1.3 4.4-1.8 0-4.2 2.5-5.2 5.3-.8 2.2 1.7 8.6 3.5 8.8.7.1 6 .1 11.8 0 10.2-.2 10.6-.3 13.3-3.2 1.5-1.6 2.7-3.8 2.7-4.9 0-2.4-3.4-6-5.5-6-1.9 0-2.2-7.9-.2-8.1.6-.1 27.2-.2 58.9-.3l57.8-.1v4.2c0 3.1-.4 4.3-1.4 4.3-2.2 0-5.6 4.9-5.6 7.9 0 1.5.7 3.6 1.5 4.8 1.4 1.9 2.1 2 12.7 1.6 12.1-.6 15.1-1.6 17-5.9 1.5-3.2-.3-7.1-3.8-8.4-2.3-.9-2.5-1.4-1.9-4.3.4-1.7.9-3.4 1.2-3.7.3-.3 4.6-.4 9.6-.3 5.1.1 12.9.2 17.4.2 7.6.1 8.5.3 11.4 2.9l3.1 2.7-.1 116.3c0 64-.3 116.8-.7 117.3-.3.6-1.9 1.9-3.5 2.8-2.7 1.7-9.5 1.7-114.6 1.4-61.5-.2-112.5-.4-113.3-.4-.8.1-2.7-.9-4.3-2.2l-2.7-2.2-.1-116.4V22.63l2.3-2.4c1.3-1.4 3.1-2.8 4-3.2 1-.3 9.4-.7 18.7-.7l16.9-.2z"/><path d="M37.9 54.03c-1.3 1.3-1.9 3.3-1.9 6.4 0 8.5-7.5 7.9 98.9 7.9 86 0 93.9-.1 96.7-1.6 5-2.7 5.9-7.6 2.3-12.2l-2.1-2.7-96.1.2c-92.1.2-96 .2-97.8 2M45.3 101.03c-5 1.8-5.9 9.5-1.5 12.9 2.6 2.2 3.3 2.2 21.7 1.7l18.9-.5 2.3-2.7c3-3.4 2.9-7-.2-10.1l-2.5-2.5-18.3.2c-10 .1-19.2.5-20.4 1M42.7 149.73c-2.7 3-2.2 8.7 1 11.2 2.6 2.1 3.5 2.1 21.6 1.7 17.5-.4 19-.5 20.9-2.5 2.6-2.5 2.6-7.6.2-10.3-1.6-1.7-3.3-1.9-21.9-1.9-18.3 0-20.3.2-21.8 1.8M42.5 204.33c-3.3 3.4-3.2 7 .4 10.7l2.9 2.9H64c11.9 0 18.9-.4 20.3-1.2 5.2-2.7 6-7.1 2.3-11.5l-2.4-2.8-19.6-.3-19.6-.3z"/></svg>