<svg xmlns="http://www.w3.org/2000/svg" width="357.63" height="440.65" version="1.0" viewBox="0 0 268.22 330.49"><path d="M122.38.62c-7.5 1.6-15.6 5.2-23.3 10.3-14.8 9.9-33.3 31.7-36.2 42.4l-1.1 4.3h-23.7c-22.7 0-23.9.1-27.6 2.3-2.2 1.2-5.3 3.9-7 6l-3.1 3.9-.3 123.4c-.2 122.4-.2 123.5 1.8 127.4 1.1 2.2 3.9 5.2 6.2 6.7l4.2 2.8 119.5.3c83 .2 120.7 0 123.3-.8 4.4-1.3 9.3-5.2 11.3-9 1.2-2.2 1.4-22.5 1.7-126.1.3-139.5 1.1-126.8-8-133.1l-4.7-3.3-24.5-.3c-13.5-.1-25.5-.4-26.7-.7-1.8-.4-2.3-1.2-2.3-3.5 0-1.8-1.1-4.2-2.9-6.2-1.5-1.8-4.6-5.9-6.8-9.1-6.3-9.2-24.4-27-32.3-31.9-6.2-3.7-14.6-6-24-6.4-5.2-.2-11.3.1-13.5.6m24 11.5c12.3 3.4 27.4 16.4 39.1 33.6 5.4 8.1 6.5 10.2 5.3 11-.8.5-26.9.9-60.6.9h-59.2l5.2-9c8.5-14.7 24.2-29.1 37.7-34.6 10.7-4.3 21.2-4.9 32.5-1.9m105.2 67.2c1 1.3 1.3 26.2 1.3 116.8 0 110.2-.1 115.3-1.8 116.8-1 1-2.9 1.7-4.3 1.8h-115c-87.8-.1-112.9-.4-114.2-1.4-1.5-1.1-1.7-10.5-1.8-117.7 0-99.6.2-116.6 1.4-117.5.9-.7 38.3-.9 117.3-.8 108.1.2 116 .4 117.1 2"/></svg>